<?xml version="1.0" encoding="UTF-8" standalone="no"?>
<!DOCTYPE svg PUBLIC "-//W3C//DTD SVG 1.1//EN" "http://www.w3.org/Graphics/SVG/1.1/DTD/svg11.dtd">
<svg width="100%" height="100%" viewBox="0 0 628 333" version="1.1" xmlns="http://www.w3.org/2000/svg" xmlns:xlink="http://www.w3.org/1999/xlink" xml:space="preserve" xmlns:serif="http://www.serif.com/" style="fill-rule:evenodd;clip-rule:evenodd;stroke-linejoin:round;stroke-miterlimit:2;">
    <g transform="matrix(1,0,0,1,-2218,-459)">
        <g id="Holzkette_Logo_DarkGreen_Icon" transform="matrix(0.467209,0,0,0.46683,2948.49,431.032)">
            <rect x="-1561.78" y="61.975" width="1342.41" height="709.716" style="fill:none;"/>
            <clipPath id="_clip1">
                <rect x="-1561.78" y="61.975" width="1342.41" height="709.716"/>
            </clipPath>
            <g clip-path="url(#_clip1)">
                <g transform="matrix(2.39943,0,0,2.40138,-493.049,77.0082)">
                    <path d="M0,252.69L0,246.586L-0.03,237.285L-0.061,236.285C-2.075,201.416 -27.75,173.181 -60.938,166.819C-62.65,148.627 -67.815,131.419 -75.753,115.863C-32.719,122.618 1.863,155.973 9.255,200.113L11.739,214.927L26.765,215.276C49.744,215.806 69.239,231.574 75.586,252.69L0,252.69ZM-36.369,252.69L-115.454,252.69C-122.361,218.305 -152.793,192.312 -189.177,192.312C-191.752,192.312 -194.312,192.448 -196.857,192.706C-219.487,158.427 -256.295,136.342 -297.224,132.525L-297.239,132.525C-297.178,132.419 -297.133,132.298 -297.073,132.192C-297.042,132.116 -296.997,132.056 -296.966,131.995C-296.497,131.071 -296.027,130.162 -295.528,129.268C-294.937,128.193 -294.346,127.133 -293.71,126.087C-293.195,125.193 -292.649,124.33 -292.104,123.467C-291.907,123.149 -291.71,122.831 -291.498,122.528C-290.892,121.573 -290.256,120.619 -289.589,119.695C-288.999,118.802 -288.363,117.938 -287.742,117.075C-287.696,117.044 -287.681,117.014 -287.666,116.984C-286.939,116.014 -286.196,115.045 -285.439,114.106C-284.697,113.166 -283.924,112.227 -283.137,111.318C-282.379,110.425 -281.607,109.546 -280.819,108.683C-279.835,107.623 -278.85,106.577 -277.82,105.548C-277.123,104.85 -276.411,104.154 -275.684,103.457C-274.836,102.654 -273.987,101.866 -273.109,101.079C-273.094,101.064 -273.064,101.048 -273.033,101.018C-272.261,100.321 -271.473,99.64 -270.67,98.989C-270.383,98.746 -270.095,98.504 -269.807,98.261C-269.05,97.64 -268.277,97.034 -267.49,96.429C-265.626,94.989 -263.718,93.611 -261.764,92.308C-260.885,91.703 -259.992,91.127 -259.083,90.566C-258.537,90.218 -257.992,89.87 -257.431,89.552C-255.765,88.537 -254.069,87.582 -252.342,86.673C-251.812,86.386 -251.282,86.113 -250.736,85.84C-250.388,85.659 -250.04,85.477 -249.676,85.31C-249.07,85.007 -248.464,84.72 -247.858,84.432C-246.101,83.598 -244.299,82.811 -242.481,82.084C-241.92,81.857 -241.36,81.63 -240.784,81.417C-236.149,79.63 -231.378,78.161 -226.455,77.055C-225.531,76.828 -224.592,76.631 -223.652,76.449C-222.895,76.282 -222.123,76.146 -221.335,76.01C-220.79,75.904 -220.229,75.813 -219.684,75.722C-218.396,75.51 -217.094,75.328 -215.791,75.176C-214.549,75.01 -213.322,74.889 -212.065,74.768C-211.444,74.722 -210.823,74.677 -210.186,74.631C-209.566,74.586 -208.929,74.54 -208.308,74.51C-207.823,74.48 -207.354,74.465 -206.869,74.435C-206.218,74.419 -205.551,74.404 -204.9,74.389C-204.143,74.374 -203.385,74.359 -202.628,74.359L-202.598,74.359C-200.704,74.359 -198.841,74.404 -196.978,74.51C-196.023,74.555 -195.084,74.616 -194.16,74.692C-191.403,74.904 -188.677,75.237 -185.981,75.676C-185.753,75.692 -185.526,75.737 -185.299,75.782C-184.557,75.889 -183.815,76.025 -183.072,76.176C-181.012,76.555 -178.967,76.994 -176.953,77.509C-176.271,77.676 -175.59,77.857 -174.923,78.039C-173.121,78.509 -171.349,79.039 -169.606,79.63C-168.289,80.054 -166.971,80.524 -165.683,81.008L-165.668,81.008C-164.365,81.493 -163.078,82.008 -161.806,82.538C-160.957,82.887 -160.109,83.25 -159.261,83.644C-158.458,83.992 -157.67,84.371 -156.883,84.75C-155.277,85.507 -153.701,86.325 -152.141,87.173C-151.52,87.507 -150.914,87.84 -150.308,88.188C-148.703,89.112 -147.097,90.066 -145.537,91.081C-144.946,91.445 -144.371,91.839 -143.795,92.217C-143.553,92.384 -143.295,92.551 -143.038,92.732C-142.462,93.111 -141.886,93.505 -141.311,93.929C-140.629,94.399 -139.978,94.898 -139.311,95.398C-138.721,95.823 -138.145,96.277 -137.585,96.716C-137.191,97.019 -136.797,97.337 -136.403,97.671C-136.312,97.746 -136.236,97.807 -136.145,97.868C-135.843,98.125 -135.524,98.382 -135.222,98.625C-134.086,99.518 -132.995,100.458 -131.92,101.457C-131.511,101.821 -131.117,102.184 -130.708,102.563C-130.072,103.154 -129.45,103.745 -128.829,104.351C-128.027,105.123 -127.239,105.911 -126.466,106.714C-125.8,107.395 -125.149,108.092 -124.497,108.804C-107.214,127.663 -96.656,152.762 -96.656,180.3C-96.656,181.209 -96.671,182.133 -96.702,183.042L-97.519,203.233L-77.343,201.9C-76.661,201.855 -75.95,201.825 -75.132,201.825C-54.728,201.825 -37.793,217.654 -36.384,237.936L-36.354,246.646C-36.354,249.267 -36.354,251.221 -36.369,252.69M-408.103,252.69C-406.483,241.799 -403.06,231.332 -397.848,221.441C-382.504,192.206 -353.845,172.575 -321.187,168.924C-321.157,168.924 -321.111,168.909 -321.081,168.909C-279.774,164.35 -240.966,185.42 -222.047,221.441L-215.034,234.786L-200.643,230.378C-196.932,229.242 -193.085,228.666 -189.177,228.666C-173.014,228.666 -159.124,238.603 -153.292,252.69L-408.103,252.69ZM114.031,264.096L114.121,-6.26L77.767,-6.275L77.691,195.902C67.103,188.131 54.985,182.875 42.095,180.451C37.611,164.138 30.174,148.763 20.192,135.145L20.192,-6.32L-16.162,-6.32L-16.162,100.715C-38.535,86.174 -64.771,78.297 -91.703,78.252L-91.703,-6.32L-128.057,-6.32L-128.057,59.151C-129.299,58.363 -130.541,57.621 -131.813,56.894C-132.313,56.606 -132.813,56.318 -133.313,56.045C-134.222,55.53 -135.146,55.031 -136.085,54.546C-136.358,54.379 -136.645,54.228 -136.933,54.106C-137.645,53.713 -138.372,53.349 -139.084,53.001C-139.357,52.849 -139.629,52.713 -139.917,52.576C-140.599,52.243 -141.296,51.91 -141.977,51.592C-142.311,51.425 -142.644,51.259 -142.977,51.122C-143.84,50.713 -144.719,50.319 -145.598,49.941C-146.643,49.486 -147.688,49.047 -148.748,48.608C-151.278,47.563 -153.838,46.608 -156.428,45.715C-158.473,45.018 -160.533,44.367 -162.608,43.745C-164.168,43.291 -165.744,42.867 -167.304,42.458C-172.03,41.261 -176.832,40.292 -181.664,39.55C-183.285,39.307 -184.905,39.095 -186.541,38.913C-188.404,38.701 -190.283,38.52 -192.161,38.383C-192.934,38.323 -193.706,38.277 -194.494,38.247L-194.494,-6.245L-230.847,-6.245L-230.847,40.792C-230.711,40.769 -230.643,40.758 -230.643,40.759C-230.643,40.761 -230.711,40.777 -230.847,40.807C-231.635,40.958 -232.438,41.125 -233.226,41.292C-234.029,41.473 -234.816,41.655 -235.589,41.837C-236.437,42.034 -237.285,42.246 -238.134,42.458C-239.209,42.731 -240.284,43.018 -241.345,43.322C-242.299,43.579 -243.238,43.867 -244.193,44.154C-245.374,44.503 -246.556,44.881 -247.722,45.276C-248.419,45.503 -249.115,45.745 -249.797,45.988C-250.721,46.306 -251.645,46.639 -252.569,46.987C-253.493,47.32 -254.402,47.669 -255.311,48.032C-257.053,48.729 -258.765,49.441 -260.476,50.199C-261.597,50.698 -262.718,51.213 -263.824,51.744C-264.551,52.092 -265.293,52.44 -266.005,52.804C-266.838,53.213 -267.671,53.637 -268.489,54.061C-275.381,57.636 -281.94,61.771 -288.12,66.421C-288.847,66.967 -289.574,67.512 -290.287,68.072C-290.998,68.618 -291.695,69.178 -292.407,69.769C-293.119,70.344 -293.816,70.92 -294.512,71.511C-295.21,72.087 -295.891,72.677 -296.573,73.283C-297.254,73.889 -297.936,74.495 -298.602,75.101C-299.284,75.707 -299.951,76.328 -300.602,76.964C-301.253,77.585 -301.905,78.206 -302.556,78.842C-302.556,78.842 -302.571,78.857 -302.586,78.888C-303.101,79.388 -303.616,79.903 -304.131,80.433C-304.389,80.675 -304.616,80.917 -304.858,81.16L-304.858,-6.245L-341.212,-6.245L-341.212,135.57C-367.357,141.72 -390.911,155.504 -409.058,174.968L-409.058,-6.245L-445.412,-6.245L-445.412,289.029L-444.745,289.029L-444.745,289.044L114.106,289.044L114.106,267.519C114.106,266.444 114.091,265.429 114.031,264.369L114.031,264.096Z" style="fill:rgb(0,55,0);fill-rule:nonzero;"/>
                </g>
            </g>
        </g>
    </g>
</svg>
