<?xml version="1.0" encoding="UTF-8" standalone="no"?>
<!DOCTYPE svg PUBLIC "-//W3C//DTD SVG 1.1//EN" "http://www.w3.org/Graphics/SVG/1.1/DTD/svg11.dtd">
<svg width="100%" height="100%" viewBox="0 0 2280 663" version="1.1" xmlns="http://www.w3.org/2000/svg" xmlns:xlink="http://www.w3.org/1999/xlink" xml:space="preserve" xmlns:serif="http://www.serif.com/" style="fill-rule:evenodd;clip-rule:evenodd;stroke-linejoin:round;stroke-miterlimit:2;">
    <g transform="matrix(1,0,0,1,0,-2471)">
        <g id="Holzkette_Logo_Darkgreen_Space" transform="matrix(1.69844,0,0,0.932768,2652.6,2413.37)">
            <rect x="-1561.78" y="61.975" width="1342.41" height="709.716" style="fill:none;"/>
            <g transform="matrix(0.660038,0,0,1.20184,-1175.36,247.779)">
                <path d="M0,252.69L0,246.586L-0.03,237.285L-0.061,236.285C-2.075,201.416 -27.75,173.181 -60.938,166.819C-62.65,148.627 -67.815,131.419 -75.753,115.863C-32.719,122.618 1.863,155.973 9.255,200.113L11.739,214.927L26.765,215.276C49.744,215.806 69.239,231.574 75.586,252.69L0,252.69ZM-36.369,252.69L-115.454,252.69C-122.361,218.305 -152.793,192.312 -189.177,192.312C-191.752,192.312 -194.312,192.448 -196.857,192.706C-219.487,158.427 -256.295,136.342 -297.224,132.525L-297.239,132.525C-297.178,132.419 -297.133,132.298 -297.073,132.192C-297.042,132.116 -296.997,132.056 -296.966,131.995C-296.497,131.071 -296.027,130.162 -295.528,129.268C-294.937,128.193 -294.346,127.133 -293.71,126.087C-293.195,125.193 -292.649,124.33 -292.104,123.467C-291.907,123.149 -291.71,122.831 -291.498,122.528C-290.892,121.573 -290.256,120.619 -289.589,119.695C-288.999,118.802 -288.363,117.938 -287.742,117.075C-287.696,117.044 -287.681,117.014 -287.666,116.984C-286.939,116.014 -286.196,115.045 -285.439,114.106C-284.697,113.166 -283.924,112.227 -283.137,111.318C-282.379,110.425 -281.607,109.546 -280.819,108.683C-279.835,107.623 -278.85,106.577 -277.82,105.548C-277.123,104.85 -276.411,104.154 -275.684,103.457C-274.836,102.654 -273.987,101.866 -273.109,101.079C-273.094,101.064 -273.064,101.048 -273.033,101.018C-272.261,100.321 -271.473,99.64 -270.67,98.989C-270.383,98.746 -270.095,98.504 -269.807,98.261C-269.05,97.64 -268.277,97.034 -267.49,96.429C-265.626,94.989 -263.718,93.611 -261.764,92.308C-260.885,91.703 -259.992,91.127 -259.083,90.566C-258.537,90.218 -257.992,89.87 -257.431,89.552C-255.765,88.537 -254.069,87.582 -252.342,86.673C-251.812,86.386 -251.282,86.113 -250.736,85.84C-250.388,85.659 -250.04,85.477 -249.676,85.31C-249.07,85.007 -248.464,84.72 -247.858,84.432C-246.101,83.598 -244.299,82.811 -242.481,82.084C-241.92,81.857 -241.36,81.63 -240.784,81.417C-236.149,79.63 -231.378,78.161 -226.455,77.055C-225.531,76.828 -224.592,76.631 -223.652,76.449C-222.895,76.282 -222.123,76.146 -221.335,76.01C-220.79,75.904 -220.229,75.813 -219.684,75.722C-218.396,75.51 -217.094,75.328 -215.791,75.176C-214.549,75.01 -213.322,74.889 -212.065,74.768C-211.444,74.722 -210.823,74.677 -210.186,74.631C-209.566,74.586 -208.929,74.54 -208.308,74.51C-207.823,74.48 -207.354,74.465 -206.869,74.435C-206.218,74.419 -205.551,74.404 -204.9,74.389C-204.143,74.374 -203.385,74.359 -202.628,74.359L-202.598,74.359C-200.704,74.359 -198.841,74.404 -196.978,74.51C-196.023,74.555 -195.084,74.616 -194.16,74.692C-191.403,74.904 -188.677,75.237 -185.981,75.676C-185.753,75.692 -185.526,75.737 -185.299,75.782C-184.557,75.889 -183.815,76.025 -183.072,76.176C-181.012,76.555 -178.967,76.994 -176.953,77.509C-176.271,77.676 -175.59,77.857 -174.923,78.039C-173.121,78.509 -171.349,79.039 -169.606,79.63C-168.289,80.054 -166.971,80.524 -165.683,81.008L-165.668,81.008C-164.365,81.493 -163.078,82.008 -161.806,82.538C-160.957,82.887 -160.109,83.25 -159.261,83.644C-158.458,83.992 -157.67,84.371 -156.883,84.75C-155.277,85.507 -153.701,86.325 -152.141,87.173C-151.52,87.507 -150.914,87.84 -150.308,88.188C-148.703,89.112 -147.097,90.066 -145.537,91.081C-144.946,91.445 -144.371,91.839 -143.795,92.217C-143.553,92.384 -143.295,92.551 -143.038,92.732C-142.462,93.111 -141.886,93.505 -141.311,93.929C-140.629,94.399 -139.978,94.898 -139.311,95.398C-138.721,95.823 -138.145,96.277 -137.585,96.716C-137.191,97.019 -136.797,97.337 -136.403,97.671C-136.312,97.746 -136.236,97.807 -136.145,97.868C-135.843,98.125 -135.524,98.382 -135.222,98.625C-134.086,99.518 -132.995,100.458 -131.92,101.457C-131.511,101.821 -131.117,102.184 -130.708,102.563C-130.072,103.154 -129.45,103.745 -128.829,104.351C-128.027,105.123 -127.239,105.911 -126.466,106.714C-125.8,107.395 -125.149,108.092 -124.497,108.804C-107.214,127.663 -96.656,152.762 -96.656,180.3C-96.656,181.209 -96.671,182.133 -96.702,183.042L-97.519,203.233L-77.343,201.9C-76.661,201.855 -75.95,201.825 -75.132,201.825C-54.728,201.825 -37.793,217.654 -36.384,237.936L-36.354,246.646C-36.354,249.267 -36.354,251.221 -36.369,252.69M-408.103,252.69C-406.483,241.799 -403.06,231.332 -397.848,221.441C-382.504,192.206 -353.845,172.575 -321.187,168.924C-321.157,168.924 -321.111,168.909 -321.081,168.909C-279.774,164.35 -240.966,185.42 -222.047,221.441L-215.034,234.786L-200.643,230.378C-196.932,229.242 -193.085,228.666 -189.177,228.666C-173.014,228.666 -159.124,238.603 -153.292,252.69L-408.103,252.69ZM114.031,264.096L114.121,-6.26L77.767,-6.275L77.691,195.902C67.103,188.131 54.985,182.875 42.095,180.451C37.611,164.138 30.174,148.763 20.192,135.145L20.192,-6.32L-16.162,-6.32L-16.162,100.715C-38.535,86.174 -64.771,78.297 -91.703,78.252L-91.703,-6.32L-128.057,-6.32L-128.057,59.151C-129.299,58.363 -130.541,57.621 -131.813,56.894C-132.313,56.606 -132.813,56.318 -133.313,56.045C-134.222,55.53 -135.146,55.031 -136.085,54.546C-136.358,54.379 -136.645,54.228 -136.933,54.106C-137.645,53.713 -138.372,53.349 -139.084,53.001C-139.357,52.849 -139.629,52.713 -139.917,52.576C-140.599,52.243 -141.296,51.91 -141.977,51.592C-142.311,51.425 -142.644,51.259 -142.977,51.122C-143.84,50.713 -144.719,50.319 -145.598,49.941C-146.643,49.486 -147.688,49.047 -148.748,48.608C-151.278,47.563 -153.838,46.608 -156.428,45.715C-158.473,45.018 -160.533,44.367 -162.608,43.745C-164.168,43.291 -165.744,42.867 -167.304,42.458C-172.03,41.261 -176.832,40.292 -181.664,39.55C-183.285,39.307 -184.905,39.095 -186.541,38.913C-188.404,38.701 -190.283,38.52 -192.161,38.383C-192.934,38.323 -193.706,38.277 -194.494,38.247L-194.494,-6.245L-230.847,-6.245L-230.847,40.792C-230.711,40.769 -230.643,40.758 -230.643,40.759C-230.643,40.761 -230.711,40.777 -230.847,40.807C-231.635,40.958 -232.438,41.125 -233.226,41.292C-234.029,41.473 -234.816,41.655 -235.589,41.837C-236.437,42.034 -237.285,42.246 -238.134,42.458C-239.209,42.731 -240.284,43.018 -241.345,43.322C-242.299,43.579 -243.238,43.867 -244.193,44.154C-245.374,44.503 -246.556,44.881 -247.722,45.276C-248.419,45.503 -249.115,45.745 -249.797,45.988C-250.721,46.306 -251.645,46.639 -252.569,46.987C-253.493,47.32 -254.402,47.669 -255.311,48.032C-257.053,48.729 -258.765,49.441 -260.476,50.199C-261.597,50.698 -262.718,51.213 -263.824,51.744C-264.551,52.092 -265.293,52.44 -266.005,52.804C-266.838,53.213 -267.671,53.637 -268.489,54.061C-275.381,57.636 -281.94,61.771 -288.12,66.421C-288.847,66.967 -289.574,67.512 -290.287,68.072C-290.998,68.618 -291.695,69.178 -292.407,69.769C-293.119,70.344 -293.816,70.92 -294.512,71.511C-295.21,72.087 -295.891,72.677 -296.573,73.283C-297.254,73.889 -297.936,74.495 -298.602,75.101C-299.284,75.707 -299.951,76.328 -300.602,76.964C-301.253,77.585 -301.905,78.206 -302.556,78.842C-302.556,78.842 -302.571,78.857 -302.586,78.888C-303.101,79.388 -303.616,79.903 -304.131,80.433C-304.389,80.675 -304.616,80.917 -304.858,81.16L-304.858,-6.245L-341.212,-6.245L-341.212,135.57C-367.357,141.72 -390.911,155.504 -409.058,174.968L-409.058,-6.245L-445.412,-6.245L-445.412,289.029L-444.745,289.029L-444.745,289.044L114.106,289.044L114.106,267.519C114.106,266.444 114.091,265.429 114.031,264.369L114.031,264.096Z" style="fill:rgb(0,55,0);fill-rule:nonzero;"/>
            </g>
            <g transform="matrix(0.601108,0,0,1.09453,-1478.17,239.237)">
                <g transform="matrix(0.974016,0,0,0.974016,846.976,105.221)">
                    <path d="M0,126.532L0,225.831L-36.28,225.831L-36.28,134.451C-36.28,123.887 -39.644,115.203 -46.34,108.384C-53.052,101.581 -61.69,98.156 -72.239,98.156C-79.286,98.156 -85.555,99.701 -91.043,102.774C-96.547,105.862 -100.829,110.143 -103.901,115.647C-106.99,121.15 -108.534,127.419 -108.534,134.451L-108.534,225.831L-144.813,225.831L-144.813,-107.072L-108.534,-107.072L-108.534,85.329C-104.177,80.131 -98.947,75.774 -92.863,72.258C-83.506,66.876 -73.018,64.185 -61.353,64.185C-49.474,64.185 -38.925,66.815 -29.69,72.105C-20.441,77.379 -13.194,84.687 -7.904,94.044C-2.629,103.385 0,114.209 0,126.532" style="fill:rgb(0,55,0);fill-rule:nonzero;"/>
                </g>
                <g transform="matrix(0.974016,0,0,0.974016,944.034,198.41)">
                    <path d="M0,95.007C9.015,95.007 16.989,92.976 23.917,88.905C30.844,84.838 36.231,79.172 40.082,71.914C43.926,64.657 45.854,56.409 45.854,47.173C45.854,37.936 43.876,29.802 39.916,22.761C35.958,15.724 30.567,10.173 23.751,6.102C16.932,2.035 9.015,-0.002 0,-0.002C-8.8,-0.002 -16.661,2.035 -23.588,6.102C-30.516,10.173 -35.907,15.724 -39.753,22.761C-43.604,29.802 -45.525,37.936 -45.525,47.173C-45.525,56.409 -43.604,64.657 -39.753,71.914C-35.907,79.172 -30.516,84.838 -23.588,88.905C-16.661,92.976 -8.8,95.007 0,95.007M0,129.977C-15.398,129.977 -29.36,126.296 -41.897,118.925C-54.433,111.559 -64.387,101.605 -71.752,89.069C-79.123,76.534 -82.803,62.569 -82.803,47.173C-82.803,31.782 -79.123,17.927 -71.752,5.606C-64.387,-6.708 -54.433,-16.547 -41.897,-23.919C-29.36,-31.285 -15.398,-34.97 0,-34.97C15.613,-34.97 29.69,-31.342 42.226,-24.084C54.761,-16.827 64.709,-6.982 72.08,5.442C79.447,17.87 83.132,31.782 83.132,47.173C83.132,62.569 79.447,76.534 72.08,89.069C64.709,101.605 54.761,111.559 42.226,118.925C29.69,126.296 15.613,129.977 0,129.977" style="fill:rgb(0,55,0);fill-rule:nonzero;"/>
                </g>
                <g transform="matrix(0.974016,0,0,0.997304,72.7217,0.713318)">
                    <rect x="994.533" y="0.216" width="36.288" height="325.13" style="fill:rgb(0,55,0);"/>
                </g>
                <g transform="matrix(0.974016,0,0,0.974016,1229.32,305.916)">
                    <path d="M0,-118.778L-78.598,-13.21L-1.987,-13.21L-1.987,19.783L-130.977,19.783L-130.977,-0.016L-52.378,-105.584L-125.03,-105.584L-125.03,-138.561L0,-138.561L0,-118.778Z" style="fill:rgb(0,55,0);fill-rule:nonzero;"/>
                </g>
                <g transform="matrix(0.974016,0,0,0.974016,1401.21,8.5012)">
                    <path d="M0,325.131L-46.187,325.131L-110.506,247.495L-110.506,325.131L-146.801,325.131L-146.801,-7.774L-110.506,-7.774L-110.506,241.227L-46.508,166.787L-3.287,166.787L-70.021,242.71L0,325.131Z" style="fill:rgb(0,55,0);fill-rule:nonzero;"/>
                </g>
                <g transform="matrix(0.974016,0,0,0.974016,1441.13,257.045)">
                    <path d="M0,-25.383C0.917,-29.129 2.216,-32.584 3.883,-35.779C7.614,-42.919 12.903,-48.484 19.722,-52.444C26.526,-56.388 34.567,-58.376 43.802,-58.376C52.593,-58.376 60.023,-56.618 66.062,-53.101C72.116,-49.569 76.795,-44.524 80.081,-37.92C81.931,-34.22 83.323,-30.046 84.286,-25.383L0,-25.383ZM110.276,-56.898C103.779,-68.778 94.881,-78.119 83.552,-84.938C72.223,-91.756 59.197,-95.166 44.459,-95.166C29.277,-95.166 15.487,-91.542 3.058,-84.28C-9.373,-77.018 -19.203,-67.188 -26.465,-54.758C-33.727,-42.328 -37.35,-28.309 -37.35,-12.699C-37.35,2.926 -33.666,16.991 -26.297,29.528C-18.943,42.065 -8.929,51.911 3.715,59.05C16.358,66.205 30.608,69.783 46.431,69.783C58.754,69.783 70.404,67.474 81.412,62.842C92.404,58.225 101.745,51.421 109.451,42.401L86.35,18.979C81.518,24.467 75.632,28.657 68.707,31.516C61.781,34.375 54.244,35.796 46.11,35.796C36.646,35.796 28.299,33.763 21.037,29.696C13.775,25.629 8.179,19.85 4.219,12.374C2.324,8.812 0.887,4.959 -0.107,0.831L118.027,0.831C118.685,-2.471 119.174,-5.483 119.511,-8.25C119.847,-10.987 120,-13.693 120,-16.322C120,-31.504 116.758,-45.019 110.276,-56.898" style="fill:rgb(0,55,0);fill-rule:nonzero;"/>
                </g>
                <g transform="matrix(0.974016,0,0,0.974016,1775.23,162.731)">
                    <path d="M0,8.443L0,41.42L-37.946,41.42L-37.946,166.787L-74.226,166.787L-74.226,41.42L-133.607,41.42L-133.607,166.787L-169.902,166.787L-169.902,41.42L-207.833,41.42L-207.833,8.443L-169.902,8.443L-169.902,-166.117L-133.607,-166.117L-133.607,8.443L-74.226,8.443L-74.226,-166.117L-37.946,-166.117L-37.946,8.443L0,8.443Z" style="fill:rgb(0,55,0);fill-rule:nonzero;"/>
                </g>
                <g transform="matrix(0.974016,0,0,0.974016,1822.87,260.431)">
                    <path d="M0,-32.335C0.902,-36.081 2.201,-39.536 3.868,-42.731C7.614,-49.871 12.888,-55.436 19.706,-59.396C26.525,-63.34 34.552,-65.328 43.786,-65.328C52.577,-65.328 60.008,-63.57 66.062,-60.053C72.1,-56.521 76.779,-51.476 80.081,-44.872C81.931,-41.172 83.323,-36.998 84.286,-32.335L0,-32.335ZM110.261,-60.374C103.779,-72.253 94.865,-81.595 83.536,-88.414C72.208,-95.232 59.182,-98.642 44.444,-98.642C29.277,-98.642 15.471,-95.018 3.042,-87.756C-9.373,-80.494 -19.218,-70.663 -26.48,-58.234C-33.742,-45.804 -37.366,-31.785 -37.366,-16.175C-37.366,-0.55 -33.681,13.516 -26.312,26.052C-18.943,38.589 -8.944,48.435 3.715,55.574C16.358,62.73 30.592,66.307 46.431,66.307C58.739,66.307 70.404,63.998 81.396,59.366C92.388,54.749 101.745,47.945 109.436,38.925L86.35,15.503C81.503,20.992 75.632,25.181 68.691,28.04C61.766,30.899 54.228,32.321 46.095,32.321C36.646,32.321 28.284,30.287 21.022,26.22C13.775,22.154 8.164,16.375 4.204,8.898C2.308,5.336 0.887,1.483 -0.108,-2.644L118.013,-2.644C118.669,-5.947 119.174,-8.959 119.495,-11.726C119.832,-14.463 120,-17.169 120,-19.798C120,-34.98 116.743,-48.495 110.261,-60.374" style="fill:rgb(0,55,0);fill-rule:nonzero;"/>
                </g>
            </g>
        </g>
    </g>
</svg>
