<?xml version="1.0" encoding="UTF-8" standalone="no"?>
<!DOCTYPE svg PUBLIC "-//W3C//DTD SVG 1.1//EN" "http://www.w3.org/Graphics/SVG/1.1/DTD/svg11.dtd">
<svg width="100%" height="100%" viewBox="0 0 1576 662" version="1.1" xmlns="http://www.w3.org/2000/svg" xmlns:xlink="http://www.w3.org/1999/xlink" xml:space="preserve" xmlns:serif="http://www.serif.com/" style="fill-rule:evenodd;clip-rule:evenodd;stroke-linejoin:round;stroke-miterlimit:2;">
    <g transform="matrix(1,0,0,1,-3770,-1578)">
        <g id="Holzkette_Logo_Black_Space_Font" transform="matrix(1.17375,0,0,0.932768,5603.15,1520.19)">
            <rect x="-1561.78" y="61.975" width="1342.41" height="709.716" style="fill:none;"/>
            <g transform="matrix(0.869814,0,0,1.09453,-2040.92,239.237)">
                <g transform="matrix(0.974016,0,0,0.974016,846.976,105.221)">
                    <path d="M0,126.532L0,225.831L-36.28,225.831L-36.28,134.451C-36.28,123.887 -39.644,115.203 -46.34,108.384C-53.052,101.581 -61.69,98.156 -72.239,98.156C-79.286,98.156 -85.555,99.701 -91.043,102.774C-96.547,105.862 -100.829,110.143 -103.901,115.647C-106.99,121.15 -108.534,127.419 -108.534,134.451L-108.534,225.831L-144.813,225.831L-144.813,-107.072L-108.534,-107.072L-108.534,85.329C-104.177,80.131 -98.947,75.774 -92.863,72.258C-83.506,66.876 -73.018,64.185 -61.353,64.185C-49.474,64.185 -38.925,66.815 -29.69,72.105C-20.441,77.379 -13.194,84.687 -7.904,94.044C-2.629,103.385 0,114.209 0,126.532" style="fill-rule:nonzero;"/>
                </g>
                <g transform="matrix(0.974016,0,0,0.974016,944.034,198.41)">
                    <path d="M0,95.007C9.015,95.007 16.989,92.976 23.917,88.905C30.844,84.838 36.231,79.172 40.082,71.914C43.926,64.657 45.854,56.409 45.854,47.173C45.854,37.936 43.876,29.802 39.916,22.761C35.958,15.724 30.567,10.173 23.751,6.102C16.932,2.035 9.015,-0.002 0,-0.002C-8.8,-0.002 -16.661,2.035 -23.588,6.102C-30.516,10.173 -35.907,15.724 -39.753,22.761C-43.604,29.802 -45.525,37.936 -45.525,47.173C-45.525,56.409 -43.604,64.657 -39.753,71.914C-35.907,79.172 -30.516,84.838 -23.588,88.905C-16.661,92.976 -8.8,95.007 0,95.007M0,129.977C-15.398,129.977 -29.36,126.296 -41.897,118.925C-54.433,111.559 -64.387,101.605 -71.752,89.069C-79.123,76.534 -82.803,62.569 -82.803,47.173C-82.803,31.782 -79.123,17.927 -71.752,5.606C-64.387,-6.708 -54.433,-16.547 -41.897,-23.919C-29.36,-31.285 -15.398,-34.97 0,-34.97C15.613,-34.97 29.69,-31.342 42.226,-24.084C54.761,-16.827 64.709,-6.982 72.08,5.442C79.447,17.87 83.132,31.782 83.132,47.173C83.132,62.569 79.447,76.534 72.08,89.069C64.709,101.605 54.761,111.559 42.226,118.925C29.69,126.296 15.613,129.977 0,129.977" style="fill-rule:nonzero;"/>
                </g>
                <g transform="matrix(0.974016,0,0,0.997304,72.7217,0.713318)">
                    <rect x="994.533" y="0.216" width="36.288" height="325.13"/>
                </g>
                <g transform="matrix(0.974016,0,0,0.974016,1229.32,305.916)">
                    <path d="M0,-118.778L-78.598,-13.21L-1.987,-13.21L-1.987,19.783L-130.977,19.783L-130.977,-0.016L-52.378,-105.584L-125.03,-105.584L-125.03,-138.561L0,-138.561L0,-118.778Z" style="fill-rule:nonzero;"/>
                </g>
                <g transform="matrix(0.974016,0,0,0.974016,1401.21,8.5012)">
                    <path d="M0,325.131L-46.187,325.131L-110.506,247.495L-110.506,325.131L-146.801,325.131L-146.801,-7.774L-110.506,-7.774L-110.506,241.227L-46.508,166.787L-3.287,166.787L-70.021,242.71L0,325.131Z" style="fill-rule:nonzero;"/>
                </g>
                <g transform="matrix(0.974016,0,0,0.974016,1441.13,257.045)">
                    <path d="M0,-25.383C0.917,-29.129 2.216,-32.584 3.883,-35.779C7.614,-42.919 12.903,-48.484 19.722,-52.444C26.526,-56.388 34.567,-58.376 43.802,-58.376C52.593,-58.376 60.023,-56.618 66.062,-53.101C72.116,-49.569 76.795,-44.524 80.081,-37.92C81.931,-34.22 83.323,-30.046 84.286,-25.383L0,-25.383ZM110.276,-56.898C103.779,-68.778 94.881,-78.119 83.552,-84.938C72.223,-91.756 59.197,-95.166 44.459,-95.166C29.277,-95.166 15.487,-91.542 3.058,-84.28C-9.373,-77.018 -19.203,-67.188 -26.465,-54.758C-33.727,-42.328 -37.35,-28.309 -37.35,-12.699C-37.35,2.926 -33.666,16.991 -26.297,29.528C-18.943,42.065 -8.929,51.911 3.715,59.05C16.358,66.205 30.608,69.783 46.431,69.783C58.754,69.783 70.404,67.474 81.412,62.842C92.404,58.225 101.745,51.421 109.451,42.401L86.35,18.979C81.518,24.467 75.632,28.657 68.707,31.516C61.781,34.375 54.244,35.796 46.11,35.796C36.646,35.796 28.299,33.763 21.037,29.696C13.775,25.629 8.179,19.85 4.219,12.374C2.324,8.812 0.887,4.959 -0.107,0.831L118.027,0.831C118.685,-2.471 119.174,-5.483 119.511,-8.25C119.847,-10.987 120,-13.693 120,-16.322C120,-31.504 116.758,-45.019 110.276,-56.898" style="fill-rule:nonzero;"/>
                </g>
                <g transform="matrix(0.974016,0,0,0.974016,1775.23,162.731)">
                    <path d="M0,8.443L0,41.42L-37.946,41.42L-37.946,166.787L-74.226,166.787L-74.226,41.42L-133.607,41.42L-133.607,166.787L-169.902,166.787L-169.902,41.42L-207.833,41.42L-207.833,8.443L-169.902,8.443L-169.902,-166.117L-133.607,-166.117L-133.607,8.443L-74.226,8.443L-74.226,-166.117L-37.946,-166.117L-37.946,8.443L0,8.443Z" style="fill-rule:nonzero;"/>
                </g>
                <g transform="matrix(0.974016,0,0,0.974016,1822.87,260.431)">
                    <path d="M0,-32.335C0.902,-36.081 2.201,-39.536 3.868,-42.731C7.614,-49.871 12.888,-55.436 19.706,-59.396C26.525,-63.34 34.552,-65.328 43.786,-65.328C52.577,-65.328 60.008,-63.57 66.062,-60.053C72.1,-56.521 76.779,-51.476 80.081,-44.872C81.931,-41.172 83.323,-36.998 84.286,-32.335L0,-32.335ZM110.261,-60.374C103.779,-72.253 94.865,-81.595 83.536,-88.414C72.208,-95.232 59.182,-98.642 44.444,-98.642C29.277,-98.642 15.471,-95.018 3.042,-87.756C-9.373,-80.494 -19.218,-70.663 -26.48,-58.234C-33.742,-45.804 -37.366,-31.785 -37.366,-16.175C-37.366,-0.55 -33.681,13.516 -26.312,26.052C-18.943,38.589 -8.944,48.435 3.715,55.574C16.358,62.73 30.592,66.307 46.431,66.307C58.739,66.307 70.404,63.998 81.396,59.366C92.388,54.749 101.745,47.945 109.436,38.925L86.35,15.503C81.503,20.992 75.632,25.181 68.691,28.04C61.766,30.899 54.228,32.321 46.095,32.321C36.646,32.321 28.284,30.287 21.022,26.22C13.775,22.154 8.164,16.375 4.204,8.898C2.308,5.336 0.887,1.483 -0.108,-2.644L118.013,-2.644C118.669,-5.947 119.174,-8.959 119.495,-11.726C119.832,-14.463 120,-17.169 120,-19.798C120,-34.98 116.743,-48.495 110.261,-60.374" style="fill-rule:nonzero;"/>
                </g>
            </g>
        </g>
    </g>
</svg>
