<?xml version="1.0" encoding="UTF-8" standalone="no"?>
<!DOCTYPE svg PUBLIC "-//W3C//DTD SVG 1.1//EN" "http://www.w3.org/Graphics/SVG/1.1/DTD/svg11.dtd">
<svg width="100%" height="100%" viewBox="0 0 868 436" version="1.1" xmlns="http://www.w3.org/2000/svg" xmlns:xlink="http://www.w3.org/1999/xlink" xml:space="preserve" xmlns:serif="http://www.serif.com/" style="fill-rule:evenodd;clip-rule:evenodd;stroke-linejoin:round;stroke-miterlimit:2;">
    <g transform="matrix(1,0,0,1,0,-3621)">
        <g id="Telesis_Logo_black_negativ_space" transform="matrix(0.452083,0,0,0.402778,0,3621.91)">
            <rect x="0" y="0" width="1920" height="1080" style="fill:none;"/>
            <clipPath id="_clip1">
                <rect x="0" y="0" width="1920" height="1080"/>
            </clipPath>
            <g clip-path="url(#_clip1)">
                <g transform="matrix(2.21198,0,0,2.48276,0,-7639.67)">
                    <path d="M868,3077.09L0.845,3077.09L0.845,3512.09L868,3512.09L868,3077.09ZM745.622,3271.01C737.358,3268.04 724.962,3265.54 715.161,3265.54C690.948,3265.54 673.844,3274.67 673.844,3294.46C673.844,3312.62 690.083,3320.6 704.304,3327.42C717.371,3333.76 728.133,3338.37 728.133,3348.75C728.133,3356.63 724.001,3364.03 709.685,3364.03C707.282,3364.03 703.535,3363.64 701.518,3363.26C693.158,3358.07 685.087,3342.79 680.955,3333.86L679.033,3333.86L672.883,3359.99C680.379,3363.93 695.944,3367.58 709.012,3367.58C733.226,3367.58 752.058,3357.49 752.058,3337.89C752.058,3320.31 736.109,3312.04 721.312,3305.03C708.436,3298.88 697.962,3293.6 697.962,3283.79C697.962,3276.01 703.247,3269.19 714.778,3269.19C716.698,3269.19 719.102,3269.38 720.254,3269.76C726.308,3274.47 733.226,3285.81 739.759,3295.23L741.202,3295.23L745.622,3271.01ZM591.03,3271.01C582.768,3268.04 570.373,3265.54 560.572,3265.54C536.358,3265.54 519.255,3274.67 519.255,3294.46C519.255,3312.62 535.494,3320.6 549.713,3327.42C562.782,3333.76 573.544,3338.37 573.544,3348.75C573.544,3356.63 569.412,3364.03 555.094,3364.03C552.693,3364.03 548.946,3363.64 546.927,3363.26C538.568,3358.07 530.496,3342.79 526.364,3333.86L524.444,3333.86L518.294,3359.99C525.788,3363.93 541.355,3367.58 554.423,3367.58C578.636,3367.58 597.469,3357.49 597.469,3337.89C597.469,3320.31 581.519,3312.04 566.722,3305.03C553.845,3298.88 543.373,3293.6 543.373,3283.79C543.373,3276.01 548.657,3269.19 560.187,3269.19C562.109,3269.19 564.512,3269.38 565.665,3269.76C571.718,3274.47 578.636,3285.81 585.17,3295.23L586.61,3295.23L591.03,3271.01ZM241.331,3268.04L212.122,3268.04L212.122,3244.49L210.391,3244.49L184.064,3263.71L170.42,3270.53L170.42,3271.69L182.719,3271.69L182.719,3340.29C182.719,3358.45 195.306,3367.58 211.352,3367.58C226.149,3367.58 237.776,3360.38 244.118,3352.4L243.157,3350.96C238.93,3353.94 232.491,3355.76 225.285,3355.76C216.83,3355.76 212.122,3350.48 212.122,3340.29L212.122,3271.69L241.331,3271.69L241.331,3268.04ZM501.918,3342.6C496.249,3347.4 486.544,3351.82 474.917,3351.82C455.316,3351.82 443.594,3337.6 442.824,3312.72C442.824,3311.76 442.824,3310.99 442.921,3310.12L505.665,3310.12C505.665,3285.43 489.81,3265.54 462.426,3265.54C433.12,3265.54 412.654,3287.06 412.654,3318.39C412.654,3347.21 431.101,3367.58 459.64,3367.58C480.682,3367.58 494.23,3358.45 503.359,3343.85L501.918,3342.6ZM341.834,3342.6C336.165,3347.4 326.461,3351.82 314.833,3351.82C295.233,3351.82 283.51,3337.6 282.74,3312.72C282.74,3311.76 282.74,3310.99 282.837,3310.12L345.581,3310.12C345.581,3285.43 329.727,3265.54 302.342,3265.54C273.036,3265.54 252.57,3287.06 252.57,3318.39C252.57,3347.21 271.018,3367.58 299.556,3367.58C320.598,3367.58 334.147,3358.45 343.275,3343.85L341.834,3342.6ZM608.945,3276.15L608.945,3277.79L619.707,3286.72L619.707,3353.89L607.889,3365.9L607.889,3367.34L661.024,3367.34L661.024,3365.9L649.206,3353.79L649.206,3268.66L648.149,3267.6L608.945,3276.15ZM353.876,3230.8L353.876,3232.43L362.907,3241.37L362.907,3353.89L351.089,3365.9L351.089,3367.34L404.224,3367.34L404.224,3365.9L392.407,3353.79L392.407,3223.31L391.253,3222.25L353.876,3230.8ZM71.878,3367.18L97.75,3367.18L151.533,3222.09L125.661,3222.09L71.878,3367.18ZM460.889,3269.76C471.554,3269.76 476.55,3280.24 476.55,3305.32L443.017,3307.34C443.594,3284.27 449.551,3269.76 460.889,3269.76ZM300.805,3269.76C311.47,3269.76 316.467,3280.24 316.467,3305.32L282.934,3307.34C283.51,3284.27 289.467,3269.76 300.805,3269.76ZM776.838,3223.19C786.131,3223.19 793.675,3230.73 793.675,3240.03C793.675,3249.32 786.131,3256.87 776.838,3256.87C767.545,3256.87 760,3249.32 760,3240.03C760,3230.73 767.545,3223.19 776.838,3223.19ZM616.729,3238.68C616.729,3247.81 623.647,3254.15 633.158,3254.15C642.768,3254.15 649.782,3247.81 649.782,3238.68C649.782,3229.93 642.768,3223.21 633.158,3223.21C623.647,3223.21 616.729,3229.74 616.729,3238.68ZM770.684,3247.76L770.684,3231.47L778.161,3231.47C779.726,3231.47 780.991,3231.88 781.956,3232.72C782.921,3233.56 783.404,3234.65 783.404,3236C783.404,3238.08 782.409,3239.4 780.418,3239.95L780.418,3240.01C781.193,3240.24 781.774,3240.6 782.162,3241.1C782.549,3241.59 782.796,3242.32 782.902,3243.3C782.933,3243.66 782.967,3244.09 783.005,3244.58C783.043,3245.08 783.073,3245.47 783.096,3245.76C783.119,3246.05 783.149,3246.34 783.187,3246.62C783.225,3246.91 783.279,3247.14 783.347,3247.3C783.415,3247.46 783.503,3247.56 783.609,3247.61L783.609,3247.76L780.441,3247.76C780.38,3247.73 780.327,3247.68 780.281,3247.59C780.235,3247.51 780.197,3247.39 780.167,3247.24C780.137,3247.09 780.11,3246.93 780.087,3246.77C780.064,3246.61 780.042,3246.41 780.019,3246.16C779.996,3245.91 779.977,3245.69 779.962,3245.5L779.848,3244C779.711,3242.15 778.647,3241.22 776.656,3241.22L773.989,3241.22L773.989,3247.76L770.684,3247.76ZM773.989,3234.13L773.989,3238.67L777.5,3238.67C778.366,3238.67 779.031,3238.46 779.494,3238.05C779.958,3237.64 780.19,3237.1 780.19,3236.43C780.19,3235.75 779.969,3235.2 779.529,3234.77C779.088,3234.35 778.442,3234.13 777.591,3234.13L773.989,3234.13Z" style="fill:rgb(35,31,32);"/>
                </g>
            </g>
        </g>
    </g>
</svg>
