<?xml version="1.0" encoding="UTF-8" standalone="no"?>
<!DOCTYPE svg PUBLIC "-//W3C//DTD SVG 1.1//EN" "http://www.w3.org/Graphics/SVG/1.1/DTD/svg11.dtd">
<svg width="100%" height="100%" viewBox="0 0 286 286" version="1.1" xmlns="http://www.w3.org/2000/svg" xmlns:xlink="http://www.w3.org/1999/xlink" xml:space="preserve" xmlns:serif="http://www.serif.com/" style="fill-rule:evenodd;clip-rule:evenodd;stroke-linejoin:round;stroke-miterlimit:2;">
    <g transform="matrix(1,0,0,1,0,-602)">
        <g id="TPoint_Logo_Flat_Dot" transform="matrix(0.361971,0,0,0.374567,-48.1422,511.486)">
            <rect x="133" y="242" width="788" height="762" style="fill:none;"/>
            <clipPath id="_clip1">
                <rect x="133" y="242" width="788" height="762"/>
            </clipPath>
            <g clip-path="url(#_clip1)">
                <g id="Layer-1" serif:id="Layer 1">
                </g>
                <g id="Layer-11" serif:id="Layer 1">
                </g>
                <g transform="matrix(1.30716,0,0,1.26321,133.084,242.001)">
                    <g id="Layer-12" serif:id="Layer 1">
                        <g transform="matrix(0.707107,-0.707107,-0.707107,-0.707107,602.767,301.384)">
                            <path d="M-213.11,-88.273C-379.56,-88.273 -514.494,46.661 -514.494,213.111C-514.493,379.56 -379.56,514.494 -213.11,514.495C-46.66,514.495 88.274,379.56 88.273,213.111C88.273,46.661 -46.66,-88.273 -213.11,-88.273" style="fill:rgb(110,111,114);fill-rule:nonzero;"/>
                        </g>
                        <g opacity="0.25">
                            <g transform="matrix(1,0,0,1,514.239,184.329)">
                                <path d="M0,330.155C-117.68,447.866 -308.526,447.866 -426.208,330.155C-430.165,326.228 -433.969,322.178 -437.619,318.099C-319.295,413.875 -145.321,406.696 -35.279,296.655C78.566,182.84 82.309,0.614 -24.112,-117.711C-15.799,-111.023 -7.731,-103.783 0,-96.052C117.711,21.659 117.711,212.475 0,330.155" style="fill:rgb(35,31,32);fill-rule:nonzero;"/>
                            </g>
                        </g>
                        <g transform="matrix(0.707107,-0.707107,-0.707107,-0.707107,462.316,261.394)">
                            <path d="M-142.074,-58.849C-253.04,-58.849 -342.996,31.107 -342.996,142.074C-342.996,253.04 -253.04,342.996 -142.074,342.996C-31.107,342.996 58.849,253.04 58.849,142.074C58.849,31.107 -31.107,-58.849 -142.074,-58.849" style="fill:rgb(35,31,32);fill-rule:nonzero;"/>
                        </g>
                        <g transform="matrix(0.707109,-0.707105,-0.707105,-0.707109,403.259,295.918)">
                            <path d="M-78.996,-32.721C-140.695,-32.722 -190.714,17.296 -190.714,78.996C-190.714,140.696 -140.697,190.714 -78.996,190.714C-17.297,190.714 32.721,140.696 32.721,78.997C32.721,17.297 -17.297,-32.721 -78.996,-32.721" style="fill:rgb(110,111,114);fill-rule:nonzero;"/>
                        </g>
                        <g transform="matrix(1,0,0,1,370.541,231.355)">
                            <path d="M0,143.358C-35.617,178.975 -89.303,185.509 -131.546,162.962C-93.076,175.11 -49.299,165.937 -18.805,135.444C24.819,91.82 24.819,21.077 -18.805,-22.547C-26.812,-30.554 -35.739,-37.119 -45.25,-42.151C-28.683,-36.936 -13.129,-27.762 0,-14.633C43.625,28.992 43.625,99.704 0,143.358" style="fill:rgb(89,89,92);fill-rule:nonzero;"/>
                        </g>
                    </g>
                </g>
            </g>
        </g>
    </g>
</svg>
