<?xml version="1.0" encoding="UTF-8" standalone="no"?>
<!DOCTYPE svg PUBLIC "-//W3C//DTD SVG 1.1//EN" "http://www.w3.org/Graphics/SVG/1.1/DTD/svg11.dtd">
<svg width="100%" height="100%" viewBox="0 0 531 172" version="1.1" xmlns="http://www.w3.org/2000/svg" xmlns:xlink="http://www.w3.org/1999/xlink" xml:space="preserve" xmlns:serif="http://www.serif.com/" style="fill-rule:evenodd;clip-rule:evenodd;stroke-linejoin:round;stroke-miterlimit:2;">
    <g transform="matrix(1,0,0,1,0,-362)">
        <g id="TPoint_Logo_Grad" transform="matrix(1,0,0,0.778866,4.26326e-14,9.04445)">
            <rect x="0" y="454" width="531" height="220" style="fill:none;"/>
            <g id="Layer-1" serif:id="Layer 1" transform="matrix(1,0,0,1.28392,7.10543e-15,454.031)">
                <g>
                    <g transform="matrix(1,0,0,1,0,99.2916)">
                        <path d="M0,-97.223L0,-83.983L24.409,-83.983L24.409,0L39.096,0L39.096,-83.983L63.505,-83.983L63.505,-97.223L0,-97.223Z" style="fill:rgb(35,31,32);fill-rule:nonzero;"/>
                    </g>
                    <g transform="matrix(1,0,0,1,130.94,83.6019)">
                        <path d="M0,3.899C6.894,3.899 12.961,2.348 18.203,-0.755C23.443,-3.857 27.58,-8.202 30.615,-13.788C33.646,-19.372 35.166,-25.75 35.166,-32.922C35.166,-40.09 33.646,-46.471 30.615,-52.056C27.58,-57.64 23.478,-61.985 18.307,-65.087C13.135,-68.191 7.169,-69.742 0.414,-69.742C-6.345,-69.742 -12.308,-68.191 -17.48,-65.087C-22.651,-61.985 -26.685,-57.64 -29.581,-52.056C-32.477,-46.471 -33.925,-40.09 -33.925,-32.922C-33.925,-25.75 -32.477,-19.372 -29.581,-13.788C-26.685,-8.202 -22.687,-3.857 -17.583,-0.755C-12.483,2.348 -6.619,3.899 0,3.899M2.689,17.759C-4.758,17.759 -11.448,16.239 -17.376,13.208C-23.307,10.176 -28.168,6.003 -31.96,0.693C-35.754,-4.614 -38.062,-10.788 -38.889,-17.821L-38.889,-48.229C-38.062,-55.398 -35.718,-61.639 -31.856,-66.949C-27.997,-72.257 -23.065,-76.362 -17.066,-79.258C-11.067,-82.154 -4.483,-83.602 2.689,-83.602C11.652,-83.602 19.719,-81.358 26.892,-76.878C34.06,-72.396 39.749,-66.329 43.957,-58.675C48.162,-51.022 50.266,-42.366 50.266,-32.715C50.266,-23.199 48.198,-14.647 44.061,-7.064C39.923,0.521 34.235,6.556 26.995,11.036C19.755,15.519 11.652,17.759 2.689,17.759M-47.784,87.501L-47.784,-81.533L-33.097,-81.533L-33.097,-56.711L-35.993,-32.922L-33.097,-9.133L-33.097,87.501L-47.784,87.501Z" style="fill:rgb(35,31,32);fill-rule:nonzero;"/>
                    </g>
                    <g transform="matrix(0,-1,-1,0,377.616,58.0241)">
                        <rect x="-41.268" y="41.268" width="97.223" height="14.687" style="fill:rgb(35,31,32);"/>
                    </g>
                    <g transform="matrix(1,0,0,1,436.466,0.0001)">
                        <path d="M0,99.292L0,42.2C0,33.789 -2.553,26.927 -7.654,21.617C-12.757,16.309 -19.444,13.653 -27.719,13.653C-33.236,13.653 -38.133,14.862 -42.406,17.273C-46.682,19.687 -50.06,23.033 -52.542,27.306C-55.024,31.582 -56.265,36.478 -56.265,41.993L-62.885,38.269C-62.885,30.962 -61.162,24.409 -57.713,18.617C-54.267,12.826 -49.578,8.275 -43.647,4.965C-37.719,1.655 -31.028,0 -23.582,0C-16.135,0 -9.515,1.795 -3.723,5.379C2.069,8.966 6.584,13.791 9.826,19.859C13.065,25.929 14.687,32.549 14.687,39.717L14.687,99.292L0,99.292ZM-70.952,99.292L-70.952,2.069L-56.265,2.069L-56.265,99.292L-70.952,99.292Z" style="fill:rgb(35,31,32);fill-rule:nonzero;"/>
                    </g>
                    <g transform="matrix(1,0,0,1,491.903,2.0691)">
                        <path d="M0,97.223L0,0L14.687,0L14.687,97.223L0,97.223ZM-24.409,13.239L-24.409,0L39.096,0L39.096,13.239L-24.409,13.239Z" style="fill:rgb(35,31,32);fill-rule:nonzero;"/>
                    </g>
                    <g transform="matrix(1,0,0,1,0,2.0686)">
                        <g transform="matrix(-179.568,1.09124,1.09124,179.568,304.046,61.4086)">
                            <path d="M0.514,-0.253C0.637,-0.132 0.638,0.066 0.517,0.189C0.395,0.312 0.197,0.314 0.074,0.192C-0.049,0.071 -0.05,-0.128 0.071,-0.251C0.132,-0.312 0.212,-0.343 0.292,-0.344C0.372,-0.344 0.453,-0.314 0.514,-0.253Z" style="fill:url(#_Linear1);fill-rule:nonzero;"/>
                        </g>
                        <g opacity="0.25">
                            <g transform="matrix(1,0,0,1,290.923,34.3847)">
                                <path d="M0,61.587C-21.952,83.545 -57.552,83.545 -79.505,61.587C-80.243,60.854 -80.952,60.099 -81.633,59.338C-59.561,77.204 -27.108,75.865 -6.581,55.338C14.656,34.107 15.354,0.114 -4.498,-21.958C-2.947,-20.71 -1.442,-19.36 0,-17.918C21.958,4.04 21.958,39.635 0,61.587" style="fill:rgb(35,31,32);fill-rule:nonzero;"/>
                            </g>
                        </g>
                    </g>
                    <g transform="matrix(0.707107,-0.707107,-0.707107,-0.707107,281.237,48.7602)">
                        <path d="M-26.502,-10.978C-47.202,-10.978 -63.983,5.803 -63.983,26.502C-63.983,47.202 -47.202,63.983 -26.502,63.983C-5.803,63.983 10.978,47.202 10.978,26.502C10.978,5.803 -5.803,-10.978 -26.502,-10.978" style="fill:rgb(35,31,32);fill-rule:nonzero;"/>
                    </g>
                    <g transform="matrix(45.6781,51.6323,51.6323,-45.6781,230.817,34.2161)">
                        <path d="M0.105,-0.018C0.115,-0.185 0.258,-0.312 0.425,-0.302C0.592,-0.292 0.718,-0.148 0.708,0.018C0.698,0.185 0.555,0.312 0.388,0.302C0.305,0.297 0.231,0.258 0.18,0.2C0.129,0.142 0.1,0.065 0.105,-0.018Z" style="fill:url(#_Linear2);fill-rule:nonzero;"/>
                    </g>
                    <g transform="matrix(1,0,0,1,264.117,43.1568)">
                        <path d="M0,26.742C-6.644,33.386 -16.659,34.605 -24.539,30.399C-17.362,32.665 -9.196,30.954 -3.508,25.266C4.63,17.128 4.63,3.932 -3.508,-4.206C-5.001,-5.7 -6.667,-6.924 -8.441,-7.863C-5.35,-6.89 -2.449,-5.179 0,-2.73C8.138,5.408 8.138,18.599 0,26.742" style="fill:rgb(89,89,92);fill-rule:nonzero;"/>
                    </g>
                </g>
            </g>
        </g>
    </g>
    <defs>
        <linearGradient id="_Linear1" x1="0" y1="0" x2="1" y2="0" gradientUnits="userSpaceOnUse" gradientTransform="matrix(1,0,0,-1,0,-0.0306818)"><stop offset="0" style="stop-color:rgb(129,130,133);stop-opacity:1"/><stop offset="1" style="stop-color:rgb(35,31,32);stop-opacity:1"/></linearGradient>
        <linearGradient id="_Linear2" x1="0" y1="0" x2="1" y2="0" gradientUnits="userSpaceOnUse" gradientTransform="matrix(1,5.55112e-17,5.55112e-17,-1,0,-3.86455e-06)"><stop offset="0" style="stop-color:rgb(129,130,133);stop-opacity:1"/><stop offset="1" style="stop-color:rgb(35,31,32);stop-opacity:1"/></linearGradient>
    </defs>
</svg>
