<?xml version="1.0" encoding="UTF-8" standalone="no"?>
<!DOCTYPE svg PUBLIC "-//W3C//DTD SVG 1.1//EN" "http://www.w3.org/Graphics/SVG/1.1/DTD/svg11.dtd">
<svg width="100%" height="100%" viewBox="0 0 531 173" version="1.1" xmlns="http://www.w3.org/2000/svg" xmlns:xlink="http://www.w3.org/1999/xlink" xml:space="preserve" xmlns:serif="http://www.serif.com/" style="fill-rule:evenodd;clip-rule:evenodd;stroke-linejoin:round;stroke-miterlimit:2;">
    <g transform="matrix(1,0,0,1,0,-964)">
        <g id="TPoint_Logo_Flat" transform="matrix(1,0,0,0.778866,4.26326e-14,611.175)">
            <rect x="0" y="454" width="531" height="220" style="fill:none;"/>
            <clipPath id="_clip1">
                <rect x="0" y="454" width="531" height="220"/>
            </clipPath>
            <g clip-path="url(#_clip1)">
                <g id="Layer-1" serif:id="Layer 1">
                </g>
                <g transform="matrix(1,0,0,1.28392,-0.0002,454.318)">
                    <g id="Layer-11" serif:id="Layer 1">
                        <g transform="matrix(0.703819,-0.710379,-0.710379,-0.703819,307.697,55.696)">
                            <path d="M-40.124,-16.729C-71.317,-16.439 -96.604,9.083 -96.604,40.278C-96.605,71.472 -71.317,96.526 -40.124,96.236C-8.931,95.947 16.356,70.425 16.356,39.23C16.356,8.035 -8.931,-17.019 -40.124,-16.729" style="fill:rgb(110,111,114);fill-rule:nonzero;"/>
                        </g>
                        <g opacity="0.25">
                            <g transform="matrix(1,0,0,1,291.293,34.3847)">
                                <path d="M0,61.587C-22.156,83.545 -58.089,83.545 -80.245,61.587C-80.991,60.854 -81.707,60.099 -82.394,59.338C-60.116,77.204 -27.361,75.865 -6.642,55.338C14.792,34.107 15.497,0.114 -4.54,-21.958C-2.975,-20.71 -1.456,-19.36 0,-17.918C22.162,4.04 22.162,39.635 0,61.587" style="fill:rgb(35,31,32);fill-rule:nonzero;"/>
                            </g>
                        </g>
                        <g transform="matrix(0.703819,-0.710379,-0.710379,-0.703819,281.341,48.4109)">
                            <path d="M-26.749,-11.153C-47.545,-10.96 -64.403,6.055 -64.403,26.852C-64.403,47.648 -47.545,64.35 -26.749,64.158C-5.953,63.964 10.904,46.949 10.904,26.153C10.904,5.357 -5.954,-11.345 -26.749,-11.153" style="fill:rgb(35,31,32);fill-rule:nonzero;"/>
                        </g>
                        <g transform="matrix(0.703827,-0.710371,-0.710371,-0.703827,270.3,55.0063)">
                            <path d="M-14.873,-6.201C-26.435,-6.094 -35.809,3.367 -35.809,14.929C-35.81,26.493 -26.437,35.78 -14.873,35.673C-3.311,35.565 6.063,26.105 6.063,14.542C6.062,2.978 -3.311,-6.309 -14.873,-6.201" style="fill:rgb(110,111,114);fill-rule:nonzero;"/>
                        </g>
                        <g transform="matrix(1,0,0,1,264.237,43.1568)">
                            <path d="M0,26.742C-6.706,33.386 -16.814,34.605 -24.767,30.399C-17.524,32.665 -9.282,30.954 -3.541,25.266C4.673,17.128 4.673,3.932 -3.541,-4.206C-5.048,-5.7 -6.729,-6.924 -8.52,-7.863C-5.4,-6.89 -2.472,-5.179 0,-2.73C8.214,5.408 8.214,18.599 0,26.742" style="fill:rgb(89,89,92);fill-rule:nonzero;"/>
                        </g>
                        <g transform="matrix(1,0,0,1,24.4092,2.069)">
                            <path d="M0,97.223L0,0L14.687,0L14.687,97.223L0,97.223ZM-24.409,13.239L-24.409,0L39.096,0L39.096,13.239L-24.409,13.239Z" style="fill:rgb(35,31,32);fill-rule:nonzero;"/>
                        </g>
                        <g transform="matrix(1,0,0,1,130.94,83.6019)">
                            <path d="M0,3.899C6.894,3.899 12.961,2.348 18.203,-0.755C23.443,-3.857 27.58,-8.202 30.615,-13.788C33.646,-19.372 35.166,-25.75 35.166,-32.922C35.166,-40.09 33.646,-46.471 30.615,-52.056C27.58,-57.64 23.478,-61.985 18.307,-65.087C13.135,-68.191 7.169,-69.742 0.414,-69.742C-6.345,-69.742 -12.308,-68.191 -17.48,-65.087C-22.651,-61.985 -26.685,-57.64 -29.581,-52.056C-32.477,-46.471 -33.925,-40.09 -33.925,-32.922C-33.925,-25.75 -32.477,-19.372 -29.581,-13.788C-26.685,-8.202 -22.687,-3.857 -17.583,-0.755C-12.483,2.348 -6.619,3.899 0,3.899M2.689,17.759C-4.758,17.759 -11.448,16.239 -17.376,13.208C-23.307,10.176 -28.168,6.003 -31.96,0.693C-35.754,-4.614 -38.062,-10.788 -38.889,-17.821L-38.889,-48.229C-38.062,-55.398 -35.718,-61.639 -31.856,-66.949C-27.997,-72.257 -23.065,-76.362 -17.066,-79.258C-11.067,-82.154 -4.483,-83.602 2.689,-83.602C11.652,-83.602 19.719,-81.358 26.892,-76.878C34.06,-72.396 39.749,-66.329 43.957,-58.675C48.162,-51.022 50.266,-42.366 50.266,-32.715C50.266,-23.199 48.198,-14.647 44.061,-7.064C39.923,0.521 34.235,6.556 26.995,11.036C19.755,15.519 11.652,17.759 2.689,17.759M-47.784,87.501L-47.784,-81.533L-33.097,-81.533L-33.097,-56.711L-35.993,-32.922L-33.097,-9.133L-33.097,87.501L-47.784,87.501Z" style="fill:rgb(35,31,32);fill-rule:nonzero;"/>
                        </g>
                        <g transform="matrix(0,-1,-1,0,377.616,58.0241)">
                            <rect x="-41.268" y="41.268" width="97.223" height="14.687" style="fill:rgb(35,31,32);"/>
                        </g>
                        <g transform="matrix(1,0,0,1,436.466,0.0001)">
                            <path d="M0,99.292L0,42.2C0,33.789 -2.553,26.927 -7.654,21.617C-12.757,16.309 -19.444,13.653 -27.719,13.653C-33.236,13.653 -38.133,14.862 -42.406,17.273C-46.682,19.687 -50.06,23.033 -52.542,27.306C-55.024,31.582 -56.265,36.478 -56.265,41.993L-62.885,38.269C-62.885,30.962 -61.162,24.409 -57.713,18.617C-54.267,12.826 -49.578,8.275 -43.647,4.965C-37.719,1.655 -31.028,0 -23.582,0C-16.135,0 -9.515,1.795 -3.723,5.379C2.069,8.966 6.584,13.791 9.826,19.859C13.065,25.929 14.687,32.549 14.687,39.717L14.687,99.292L0,99.292ZM-70.952,99.292L-70.952,2.069L-56.265,2.069L-56.265,99.292L-70.952,99.292Z" style="fill:rgb(35,31,32);fill-rule:nonzero;"/>
                        </g>
                        <g transform="matrix(1,0,0,1,491.903,2.0691)">
                            <path d="M0,97.223L0,0L14.687,0L14.687,97.223L0,97.223ZM-24.409,13.239L-24.409,0L39.096,0L39.096,13.239L-24.409,13.239Z" style="fill:rgb(35,31,32);fill-rule:nonzero;"/>
                        </g>
                    </g>
                </g>
            </g>
        </g>
    </g>
</svg>
