<?xml version="1.0" encoding="UTF-8" standalone="no"?>
<!DOCTYPE svg PUBLIC "-//W3C//DTD SVG 1.1//EN" "http://www.w3.org/Graphics/SVG/1.1/DTD/svg11.dtd">
<svg width="100%" height="100%" viewBox="0 0 286 286" version="1.1" xmlns="http://www.w3.org/2000/svg" xmlns:xlink="http://www.w3.org/1999/xlink" xml:space="preserve" xmlns:serif="http://www.serif.com/" style="fill-rule:evenodd;clip-rule:evenodd;stroke-linejoin:round;stroke-miterlimit:2;">
    <g id="TPoint_Logo_Grad_Dot" transform="matrix(0.361971,0,0,0.374567,-48.1422,-90.6453)">
        <rect x="133" y="242" width="788" height="762" style="fill:none;"/>
        <g id="Layer-1" serif:id="Layer 1">
        </g>
        <g transform="matrix(1.30094,0,0,1.2572,134.458,243.908)">
            <g id="Layer-11" serif:id="Layer 1">
                <g>
                    <g transform="matrix(-962.623,5.84988,5.84988,962.623,584.41,299.664)">
                        <path d="M0.292,-0.313C0.372,-0.313 0.453,-0.283 0.514,-0.223C0.575,-0.162 0.607,-0.082 0.607,-0.002L0.607,-0.002C0.607,0.078 0.577,0.159 0.517,0.22C0.456,0.281 0.376,0.313 0.296,0.313L0.296,0.313C0.216,0.313 0.135,0.283 0.074,0.223C0.013,0.162 -0.018,0.082 -0.019,0.002L-0.019,0.002C-0.019,-0.078 0.011,-0.159 0.071,-0.22C0.132,-0.281 0.212,-0.313 0.292,-0.313L0.292,-0.313Z" style="fill:url(#_Linear1);fill-rule:nonzero;"/>
                    </g>
                    <g opacity="0.25">
                        <g transform="matrix(1,0,0,1,514.239,184.329)">
                            <path d="M0,330.155C-117.68,447.866 -308.526,447.866 -426.208,330.155C-430.165,326.228 -433.969,322.178 -437.619,318.099C-319.295,413.875 -145.321,406.696 -35.279,296.655C78.566,182.84 82.309,0.614 -24.112,-117.711C-15.799,-111.023 -7.731,-103.783 0,-96.052C117.711,21.659 117.711,212.475 0,330.155" style="fill:rgb(35,31,32);fill-rule:nonzero;"/>
                        </g>
                    </g>
                    <g transform="matrix(0.707107,-0.707107,-0.707107,-0.707107,462.316,261.394)">
                        <path d="M-142.074,-58.849C-253.04,-58.849 -342.996,31.107 -342.996,142.074C-342.996,253.04 -253.04,342.996 -142.074,342.996C-31.107,342.996 58.849,253.04 58.849,142.074C58.849,31.107 -31.107,-58.849 -142.074,-58.849" style="fill:rgb(35,31,32);fill-rule:nonzero;"/>
                    </g>
                    <g transform="matrix(244.87,276.79,276.79,-244.87,192.023,183.426)">
                        <path d="M0.105,-0.018C0.115,-0.185 0.258,-0.312 0.425,-0.302C0.592,-0.292 0.718,-0.148 0.708,0.018C0.698,0.185 0.555,0.312 0.388,0.302C0.305,0.297 0.231,0.258 0.18,0.2C0.129,0.142 0.1,0.065 0.105,-0.018Z" style="fill:url(#_Linear2);fill-rule:nonzero;"/>
                    </g>
                    <g transform="matrix(1,0,0,1,370.541,231.354)">
                        <path d="M0,143.358C-35.617,178.975 -89.303,185.509 -131.546,162.962C-93.076,175.11 -49.299,165.937 -18.805,135.444C24.819,91.82 24.819,21.077 -18.805,-22.547C-26.812,-30.554 -35.739,-37.119 -45.25,-42.151C-28.683,-36.936 -13.129,-27.762 0,-14.633C43.625,28.992 43.625,99.704 0,143.358" style="fill:rgb(89,89,92);fill-rule:nonzero;"/>
                    </g>
                </g>
            </g>
        </g>
    </g>
    <defs>
        <linearGradient id="_Linear1" x1="0" y1="0" x2="1" y2="0" gradientUnits="userSpaceOnUse" gradientTransform="matrix(1,0,0,-1,0,-3.21125e-07)"><stop offset="0" style="stop-color:rgb(129,130,133);stop-opacity:1"/><stop offset="1" style="stop-color:rgb(35,31,32);stop-opacity:1"/></linearGradient>
        <linearGradient id="_Linear2" x1="0" y1="0" x2="1" y2="0" gradientUnits="userSpaceOnUse" gradientTransform="matrix(1,0,0,-1,0,-2.59903e-08)"><stop offset="0" style="stop-color:rgb(129,130,133);stop-opacity:1"/><stop offset="1" style="stop-color:rgb(35,31,32);stop-opacity:1"/></linearGradient>
    </defs>
</svg>
