<?xml version="1.0" encoding="UTF-8" standalone="no"?>
<!DOCTYPE svg PUBLIC "-//W3C//DTD SVG 1.1//EN" "http://www.w3.org/Graphics/SVG/1.1/DTD/svg11.dtd">
<svg width="100%" height="100%" viewBox="0 0 286 286" version="1.1" xmlns="http://www.w3.org/2000/svg" xmlns:xlink="http://www.w3.org/1999/xlink" xml:space="preserve" xmlns:serif="http://www.serif.com/" style="fill-rule:evenodd;clip-rule:evenodd;stroke-linejoin:round;stroke-miterlimit:2;">
    <g transform="matrix(1,0,0,1,-378,0)">
        <g id="TPoint_Logo_Grad_Dot_Font" transform="matrix(0.361971,0,0,0.374567,329.93,-90.6453)">
            <rect x="133" y="242" width="788" height="762" style="fill:none;"/>
            <g id="Layer-1" serif:id="Layer 1">
            </g>
            <g id="Layer-11" serif:id="Layer 1">
            </g>
            <g transform="matrix(1.3067,0,0,1.26276,133.363,242.85)">
                <g transform="matrix(-962.623,5.84988,5.84988,962.623,584.41,299.664)">
                    <path d="M0.292,-0.313C0.372,-0.313 0.453,-0.283 0.514,-0.223C0.575,-0.162 0.607,-0.082 0.607,-0.002L0.607,-0.002C0.607,0.078 0.577,0.159 0.517,0.22C0.456,0.281 0.376,0.313 0.296,0.313L0.296,0.313C0.216,0.313 0.135,0.283 0.074,0.223C0.013,0.162 -0.018,0.082 -0.019,0.002L-0.019,0.002C-0.019,-0.078 0.011,-0.159 0.071,-0.22C0.132,-0.281 0.212,-0.313 0.292,-0.313L0.292,-0.313Z" style="fill:url(#_Linear1);fill-rule:nonzero;"/>
                </g>
                <g opacity="0.25">
                    <g transform="matrix(1,0,0,1,514.239,184.329)">
                        <path d="M0,330.155C-117.68,447.866 -308.526,447.866 -426.208,330.155C-430.165,326.228 -433.969,322.178 -437.619,318.099C-319.295,413.875 -145.321,406.696 -35.279,296.655C78.566,182.84 82.309,0.614 -24.112,-117.711C-15.799,-111.023 -7.731,-103.783 0,-96.052C117.711,21.659 117.711,212.475 0,330.155" style="fill:rgb(35,31,32);fill-rule:nonzero;"/>
                    </g>
                </g>
                <g transform="matrix(0.707107,-0.707107,-0.707107,-0.707107,462.316,261.394)">
                    <path d="M-142.074,-58.849C-253.04,-58.849 -342.996,31.107 -342.996,142.074C-342.996,253.04 -253.04,342.996 -142.074,342.996C-31.107,342.996 58.849,253.04 58.849,142.074C58.849,31.107 -31.107,-58.849 -142.074,-58.849" style="fill:rgb(35,31,32);fill-rule:nonzero;"/>
                </g>
                <g transform="matrix(244.87,276.79,276.79,-244.87,192.023,183.426)">
                    <path d="M0.105,-0.018C0.115,-0.185 0.258,-0.312 0.425,-0.302C0.592,-0.292 0.718,-0.148 0.708,0.018C0.698,0.185 0.555,0.312 0.388,0.302C0.305,0.297 0.231,0.258 0.18,0.2C0.129,0.142 0.1,0.065 0.105,-0.018Z" style="fill:url(#_Linear2);fill-rule:nonzero;"/>
                </g>
                <g transform="matrix(1,0,0,1,370.541,231.355)">
                    <path d="M0,143.358C-35.617,178.975 -89.303,185.509 -131.546,162.962C-93.076,175.11 -49.299,165.937 -18.805,135.444C24.819,91.82 24.819,21.077 -18.805,-22.547C-26.812,-30.554 -35.739,-37.119 -45.25,-42.151C-28.683,-36.936 -13.129,-27.762 0,-14.633C43.625,28.992 43.625,99.704 0,143.358" style="fill:rgb(89,89,92);fill-rule:nonzero;"/>
                </g>
                <g transform="matrix(1,0,0,1,63.6338,251.21)">
                    <path d="M0,97.223L0,0L14.687,0L14.687,97.223L0,97.223ZM-24.409,13.239L-24.409,0L39.096,0L39.096,13.239L-24.409,13.239Z" style="fill:white;fill-rule:nonzero;"/>
                </g>
                <g transform="matrix(1,0,0,1,170.164,332.743)">
                    <path d="M0,3.899C6.894,3.899 12.961,2.348 18.203,-0.755C23.443,-3.858 27.58,-8.202 30.615,-13.788C33.646,-19.372 35.166,-25.75 35.166,-32.922C35.166,-40.09 33.646,-46.471 30.615,-52.056C27.58,-57.64 23.478,-61.985 18.307,-65.087C13.135,-68.191 7.169,-69.742 0.414,-69.742C-6.345,-69.742 -12.308,-68.191 -17.48,-65.087C-22.651,-61.985 -26.685,-57.641 -29.581,-52.056C-32.477,-46.471 -33.925,-40.09 -33.925,-32.922C-33.925,-25.75 -32.477,-19.372 -29.581,-13.788C-26.685,-8.202 -22.687,-3.858 -17.583,-0.755C-12.483,2.348 -6.619,3.899 0,3.899M2.689,17.759C-4.758,17.759 -11.448,16.239 -17.376,13.208C-23.307,10.176 -28.168,6.003 -31.96,0.692C-35.754,-4.614 -38.062,-10.788 -38.889,-17.821L-38.889,-48.229C-38.062,-55.398 -35.719,-61.639 -31.856,-66.949C-27.997,-72.257 -23.065,-76.362 -17.066,-79.258C-11.067,-82.154 -4.483,-83.602 2.689,-83.602C11.652,-83.602 19.719,-81.358 26.892,-76.878C34.06,-72.396 39.749,-66.329 43.957,-58.675C48.162,-51.022 50.266,-42.366 50.266,-32.715C50.266,-23.199 48.198,-14.647 44.061,-7.064C39.923,0.521 34.235,6.556 26.995,11.036C19.755,15.519 11.652,17.759 2.689,17.759M-47.784,87.501L-47.784,-81.533L-33.097,-81.533L-33.097,-56.711L-35.993,-32.922L-33.097,-9.133L-33.097,87.501L-47.784,87.501Z" style="fill:white;fill-rule:nonzero;"/>
                </g>
                <g transform="matrix(1,0,0,1,287.452,263.208)">
                    <path d="M0,73.227C6.755,73.227 12.825,71.643 18.204,68.469C23.582,65.298 27.787,60.887 30.822,55.231C33.853,49.578 35.373,43.233 35.373,36.2C35.373,29.306 33.821,23.135 30.718,17.686C27.615,12.24 23.407,7.931 18.1,4.757C12.79,1.586 6.755,-0.001 0,-0.001C-6.759,-0.001 -12.825,1.586 -18.204,4.757C-23.582,7.931 -27.79,12.24 -30.822,17.686C-33.857,23.135 -35.373,29.306 -35.373,36.2C-35.373,43.371 -33.857,49.749 -30.822,55.334C-27.79,60.92 -23.582,65.298 -18.204,68.469C-12.825,71.643 -6.759,73.227 0,73.227M0,87.294C-9.516,87.294 -18.068,85.018 -25.65,80.467C-33.236,75.916 -39.271,69.781 -43.751,62.057C-48.233,54.335 -50.473,45.715 -50.473,36.2C-50.473,26.824 -48.233,18.342 -43.751,10.757C-39.271,3.173 -33.236,-2.861 -25.65,-7.344C-18.068,-11.823 -9.516,-14.067 0,-14.067C9.377,-14.067 17.893,-11.859 25.547,-7.448C33.201,-3.032 39.267,2.999 43.75,10.653C48.23,18.306 50.473,26.824 50.473,36.2C50.473,45.854 48.23,54.507 43.75,62.16C39.267,69.814 33.201,75.916 25.547,80.467C17.893,85.018 9.377,87.294 0,87.294" style="fill:white;fill-rule:nonzero;"/>
                </g>
                <g transform="matrix(0,-1,-1,0,416.84,307.165)">
                    <rect x="-41.268" y="41.268" width="97.223" height="14.687" style="fill:white;"/>
                </g>
                <g transform="matrix(1,0,0,1,475.691,249.141)">
                    <path d="M0,99.292L0,42.2C0,33.789 -2.553,26.927 -7.654,21.617C-12.757,16.309 -19.444,13.653 -27.719,13.653C-33.236,13.653 -38.133,14.862 -42.406,17.273C-46.682,19.687 -50.06,23.033 -52.542,27.306C-55.024,31.582 -56.265,36.478 -56.265,41.993L-62.885,38.269C-62.885,30.962 -61.162,24.409 -57.713,18.617C-54.267,12.826 -49.578,8.275 -43.647,4.965C-37.719,1.655 -31.028,0 -23.582,0C-16.135,0 -9.515,1.795 -3.723,5.379C2.069,8.966 6.584,13.791 9.826,19.859C13.065,25.929 14.687,32.549 14.687,39.717L14.687,99.292L0,99.292ZM-70.952,2.069L-56.265,2.069L-56.265,99.292L-70.952,99.292L-70.952,2.069Z" style="fill:white;fill-rule:nonzero;"/>
                </g>
                <g transform="matrix(1,0,0,1,0,-3.124)">
                    <path d="M531.127,254.334L545.814,254.334L545.814,351.557L531.127,351.557L531.127,254.334ZM506.718,254.334L570.223,254.334L570.223,267.574L506.718,267.574L506.718,254.334Z" style="fill:white;fill-rule:nonzero;"/>
                </g>
            </g>
        </g>
    </g>
    <defs>
        <linearGradient id="_Linear1" x1="0" y1="0" x2="1" y2="0" gradientUnits="userSpaceOnUse" gradientTransform="matrix(1,0,0,-1,0,-3.21125e-07)"><stop offset="0" style="stop-color:rgb(129,130,133);stop-opacity:1"/><stop offset="1" style="stop-color:rgb(35,31,32);stop-opacity:1"/></linearGradient>
        <linearGradient id="_Linear2" x1="0" y1="0" x2="1" y2="0" gradientUnits="userSpaceOnUse" gradientTransform="matrix(1,0,0,-1,0,-2.59903e-08)"><stop offset="0" style="stop-color:rgb(129,130,133);stop-opacity:1"/><stop offset="1" style="stop-color:rgb(35,31,32);stop-opacity:1"/></linearGradient>
    </defs>
</svg>
