<?xml version="1.0" encoding="UTF-8" standalone="no"?>
<!DOCTYPE svg PUBLIC "-//W3C//DTD SVG 1.1//EN" "http://www.w3.org/Graphics/SVG/1.1/DTD/svg11.dtd">
<svg width="100%" height="100%" viewBox="0 0 725 146" version="1.1" xmlns="http://www.w3.org/2000/svg" xmlns:xlink="http://www.w3.org/1999/xlink" xml:space="preserve" xmlns:serif="http://www.serif.com/" style="fill-rule:evenodd;clip-rule:evenodd;stroke-linejoin:round;stroke-miterlimit:2;">
    <g transform="matrix(1,0,0,1,-913,-1863)">
        <g id="Telesis_Logo_black_nospace" transform="matrix(0.377604,0,0,0.134259,913,1863.37)">
            <rect x="0" y="0" width="1920" height="1080" style="fill:none;"/>
            <clipPath id="_clip1">
                <rect x="0" y="0" width="1920" height="1080"/>
            </clipPath>
            <g clip-path="url(#_clip1)">
                <g>
                    <g transform="matrix(12.4047,0,0,34.8883,-3515.73,-5051.82)">
                        <g transform="matrix(0.327192,0,0,0.327192,278.378,132.333)">
                            <path d="M15.323,132.817L32.204,132.817L67.297,38.148L50.416,38.148L15.323,132.817Z" style="fill:rgb(35,31,32);fill-rule:nonzero;"/>
                        </g>
                        <g transform="matrix(0.327192,0,0,0.327192,271.415,134.616)">
                            <path d="M147.173,61.152L128.114,61.152L128.114,45.792L126.985,45.792L109.807,58.331L100.904,62.782L100.904,63.534L108.929,63.534L108.929,108.299C108.929,120.148 117.142,126.104 127.612,126.104C137.267,126.104 144.853,121.402 148.991,116.198L148.364,115.258C145.606,117.201 141.405,118.393 136.703,118.393C131.186,118.393 128.114,114.944 128.114,108.299L128.114,63.534L147.173,63.534L147.173,61.152Z" style="fill:rgb(35,31,32);fill-rule:nonzero;"/>
                        </g>
                        <g transform="matrix(0.327192,0,0,0.327192,271.415,134.616)">
                            <path d="M185.979,62.28C192.938,62.28 196.198,69.114 196.198,85.478L174.318,86.794C174.694,71.747 178.581,62.28 185.979,62.28ZM212.75,109.803C209.051,112.938 202.719,115.822 195.132,115.822C182.343,115.822 174.694,106.543 174.192,90.305C174.192,89.678 174.192,89.177 174.255,88.612L215.195,88.612C215.195,72.5 204.85,59.522 186.982,59.522C167.86,59.522 154.506,73.566 154.506,94.004C154.506,112.813 166.543,126.104 185.164,126.104C198.894,126.104 207.734,120.148 213.69,110.618L212.75,109.803Z" style="fill:rgb(35,31,32);fill-rule:nonzero;"/>
                        </g>
                        <g transform="matrix(0.327192,0,0,0.327192,271.415,135.057)">
                            <path d="M220.607,35.509L220.607,36.575L226.5,42.406L226.5,115.822L218.789,123.659L218.789,124.599L253.459,124.599L253.459,123.659L245.748,115.759L245.748,30.619L244.995,29.93L220.607,35.509Z" style="fill:rgb(35,31,32);fill-rule:nonzero;"/>
                        </g>
                        <g transform="matrix(0.327192,0,0,0.327192,271.415,134.616)">
                            <path d="M290.432,62.28C297.391,62.28 300.651,69.114 300.651,85.478L278.771,86.794C279.147,71.747 283.034,62.28 290.432,62.28ZM317.203,109.803C313.504,112.938 307.172,115.822 299.585,115.822C286.796,115.822 279.147,106.543 278.645,90.305C278.645,89.678 278.645,89.177 278.708,88.612L319.648,88.612C319.648,72.5 309.303,59.522 291.435,59.522C272.313,59.522 258.959,73.566 258.959,94.004C258.959,112.813 270.996,126.104 289.617,126.104C303.347,126.104 312.187,120.148 318.143,110.618L317.203,109.803Z" style="fill:rgb(35,31,32);fill-rule:nonzero;"/>
                        </g>
                        <g transform="matrix(0.327192,0,0,0.327192,271.415,134.616)">
                            <path d="M375.348,63.095C369.957,61.152 361.869,59.522 355.474,59.522C339.675,59.522 328.515,65.478 328.515,78.393C328.515,90.242 339.111,95.446 348.389,99.898C356.916,104.035 363.938,107.045 363.938,113.816C363.938,118.957 361.242,123.784 351.9,123.784C350.333,123.784 347.888,123.534 346.571,123.283C341.117,119.897 335.85,109.929 333.154,104.098L331.901,104.098L327.888,121.151C332.778,123.722 342.935,126.104 351.462,126.104C367.261,126.104 379.549,119.521 379.549,106.731C379.549,95.258 369.142,89.866 359.487,85.29C351.085,81.277 344.252,77.829 344.252,71.434C344.252,66.356 347.7,61.904 355.223,61.904C356.477,61.904 358.045,62.03 358.797,62.28C362.747,65.352 367.261,72.75 371.524,78.895L372.464,78.895L375.348,63.095Z" style="fill:rgb(35,31,32);fill-rule:nonzero;"/>
                        </g>
                        <g transform="matrix(0.327192,0,0,0.327192,271.415,135.057)">
                            <path d="M387.037,65.102L387.037,66.167L394.059,71.998L394.059,115.822L386.348,123.659L386.348,124.599L421.018,124.599L421.018,123.659L413.307,115.759L413.307,60.211L412.617,59.522L387.037,65.102ZM392.116,40.65C392.116,46.607 396.63,50.744 402.836,50.744C409.106,50.744 413.683,46.607 413.683,40.65C413.683,34.945 409.106,30.557 402.836,30.557C396.63,30.557 392.116,34.82 392.116,40.65Z" style="fill:rgb(35,31,32);fill-rule:nonzero;"/>
                        </g>
                        <g transform="matrix(0.327192,0,0,0.327192,271.415,134.616)">
                            <path d="M476.217,63.095C470.825,61.152 462.737,59.522 456.342,59.522C440.543,59.522 429.383,65.478 429.383,78.393C429.383,90.242 439.979,95.446 449.258,99.898C457.784,104.035 464.806,107.045 464.806,113.816C464.806,118.957 462.11,123.784 452.769,123.784C451.201,123.784 448.756,123.534 447.44,123.283C441.985,119.897 436.719,109.929 434.023,104.098L432.769,104.098L428.756,121.151C433.647,123.722 443.803,126.104 452.33,126.104C468.129,126.104 480.417,119.521 480.417,106.731C480.417,95.258 470.01,89.866 460.355,85.29C451.954,81.277 445.12,77.829 445.12,71.434C445.12,66.356 448.568,61.904 456.092,61.904C457.345,61.904 458.913,62.03 459.665,62.28C463.615,65.352 468.129,72.75 472.392,78.895L473.333,78.895L476.217,63.095Z" style="fill:rgb(35,31,32);fill-rule:nonzero;"/>
                        </g>
                    </g>
                    <g transform="matrix(2.64828,0,0,7.44828,-6525.22,-10330.2)">
                        <path d="M3171.84,1387C3181.13,1387 3188.68,1394.55 3188.68,1403.84C3188.68,1413.13 3181.13,1420.67 3171.84,1420.67C3162.55,1420.67 3155,1413.13 3155,1403.84C3155,1394.55 3162.55,1387 3171.84,1387ZM3165.68,1411.58L3165.68,1395.28L3173.16,1395.28C3174.73,1395.28 3175.99,1395.69 3176.96,1396.53C3177.92,1397.37 3178.4,1398.46 3178.4,1399.81C3178.4,1401.89 3177.41,1403.21 3175.42,1403.76L3175.42,1403.82C3176.19,1404.05 3176.77,1404.41 3177.16,1404.91C3177.55,1405.4 3177.8,1406.13 3177.9,1407.11C3177.93,1407.47 3177.97,1407.9 3178.01,1408.39C3178.04,1408.89 3178.07,1409.28 3178.1,1409.57C3178.12,1409.86 3178.15,1410.15 3178.19,1410.43C3178.22,1410.72 3178.28,1410.95 3178.35,1411.11C3178.41,1411.27 3178.5,1411.37 3178.61,1411.41L3178.61,1411.58L3175.44,1411.58C3175.38,1411.54 3175.33,1411.49 3175.28,1411.4C3175.24,1411.32 3175.2,1411.2 3175.17,1411.05C3175.14,1410.9 3175.11,1410.74 3175.09,1410.58C3175.06,1410.42 3175.04,1410.22 3175.02,1409.97C3175,1409.72 3174.98,1409.5 3174.96,1409.31L3174.85,1407.81C3174.71,1405.96 3173.65,1405.03 3171.66,1405.03L3168.99,1405.03L3168.99,1411.58L3165.68,1411.58ZM3168.99,1397.94L3168.99,1402.48L3172.5,1402.48C3173.37,1402.48 3174.03,1402.27 3174.49,1401.86C3174.96,1401.45 3175.19,1400.91 3175.19,1400.25C3175.19,1399.56 3174.97,1399.01 3174.53,1398.58C3174.09,1398.16 3173.44,1397.94 3172.59,1397.94L3168.99,1397.94Z" style="fill:rgb(35,31,32);"/>
                    </g>
                </g>
            </g>
        </g>
    </g>
</svg>
